<?xml version="1.0" encoding="utf-8"?>
<!-- Generator: Adobe Illustrator 27.5.0, SVG Export Plug-In . SVG Version: 6.00 Build 0)  -->
<svg version="1.1" id="Layer_1" xmlns="http://www.w3.org/2000/svg" xmlns:xlink="http://www.w3.org/1999/xlink" x="0px" y="0px"
	 viewBox="0 0 5000 2916" style="enable-background:new 0 0 5000 2916;" xml:space="preserve">
<g>
	<rect style="fill-rule:evenodd;clip-rule:evenodd;fill:#1E003D;" width="5000" height="2908.93"/>
	<g>
		<defs>
			<path id="SVGID_1_" d="M3750.572,0c313.22,237.34,258.051,616.414-165.505,1137.223
				c-366.251,427.748-236.253,678.822,390,753.221c1192.629,340.5-1771.747,376.111-1118.929,1018.487H5000V0H3750.572z"/>
		</defs>
		<clipPath id="SVGID_00000163070545143968471560000006082310416074329238_">
			<use xlink:href="#SVGID_1_"  style="overflow:visible;"/>
		</clipPath>
		
			<linearGradient id="SVGID_00000129915891030159747290000013598013549273381537_" gradientUnits="userSpaceOnUse" x1="6661.6011" y1="-218.9886" x2="3538.218" y2="1537.2864">
			<stop  offset="0" style="stop-color:#008F81"/>
			<stop  offset="0.52" style="stop-color:#3DA375"/>
			<stop  offset="1" style="stop-color:#CCF49E"/>
		</linearGradient>
		
			<rect x="2203.32" style="clip-path:url(#SVGID_00000163070545143968471560000006082310416074329238_);fill:url(#SVGID_00000129915891030159747290000013598013549273381537_);" width="2964.376" height="2908.93"/>
	</g>
	<g>
		<defs>
			<path id="SVGID_00000070829732353365208300000014862983418499184563_" d="M4130.57,0
				c313.22,237.34,258.053,616.414-165.505,1137.223c-366.251,427.748-236.251,678.822,390,753.221
				c1192.631,340.5-1771.747,376.111-1118.929,1018.487H5000V0H4130.57z"/>
		</defs>
		<clipPath id="SVGID_00000080899008248241678750000007339121245490097324_">
			<use xlink:href="#SVGID_00000070829732353365208300000014862983418499184563_"  style="overflow:visible;"/>
		</clipPath>
		
			<linearGradient id="SVGID_00000138551930509021350200000007907098842778376365_" gradientUnits="userSpaceOnUse" x1="7041.6025" y1="-218.9893" x2="3918.2178" y2="1537.2865">
			<stop  offset="0" style="stop-color:#008F81"/>
			<stop  offset="0.52" style="stop-color:#3DA375"/>
			<stop  offset="1" style="stop-color:#CCF49E"/>
		</linearGradient>
		
			<rect x="2583.319" style="clip-path:url(#SVGID_00000080899008248241678750000007339121245490097324_);fill:url(#SVGID_00000138551930509021350200000007907098842778376365_);" width="2964.378" height="2908.93"/>
	</g>
	<g>
		<defs>
			<path id="SVGID_00000042728169384597487950000008658723220687184793_" d="M5000,2114.927
				c-345.136,178.078-1812.738,322.787-1333.862,794.004H5000V2114.927z M4560.571,0
				c313.22,237.34,258.053,616.414-165.505,1137.223c-366.252,427.748-236.253,678.822,390,753.221
				c98.977,28.259,168.774,54.38,214.933,78.961V0H4560.571z"/>
		</defs>
		<clipPath id="SVGID_00000055704136088375390890000015494698368408055429_">
			<use xlink:href="#SVGID_00000042728169384597487950000008658723220687184793_"  style="overflow:visible;"/>
		</clipPath>
		
			<linearGradient id="SVGID_00000030450342641962089610000003427601922191774342_" gradientUnits="userSpaceOnUse" x1="7373.8516" y1="-389.9992" x2="4251.3564" y2="1365.7764">
			<stop  offset="0" style="stop-color:#008F81"/>
			<stop  offset="0.52" style="stop-color:#3DA375"/>
			<stop  offset="1" style="stop-color:#CCF49E"/>
		</linearGradient>
		
			<rect x="3187.262" style="clip-path:url(#SVGID_00000055704136088375390890000015494698368408055429_);fill:url(#SVGID_00000030450342641962089610000003427601922191774342_);" width="1812.738" height="2908.93"/>
	</g>
	<path style="fill-rule:evenodd;clip-rule:evenodd;fill:#FFFFFF;" d="M418.551,294.412h12.803c7.825,0,14.225,6.384,14.225,14.19
		v12.773c0,7.807-6.401,14.192-14.225,14.192h-12.803c-7.825,0-14.225-6.385-14.225-14.192v-12.773
		C404.325,300.796,410.726,294.412,418.551,294.412"/>
	<path style="fill-rule:evenodd;clip-rule:evenodd;fill:#FFFFFF;" d="M506.696,294.412h12.805c7.825,0,14.225,6.384,14.225,14.19
		v12.773c0,7.807-6.401,14.192-14.225,14.192h-12.805c-7.825,0-14.225-6.385-14.225-14.192v-12.773
		C492.47,300.796,498.871,294.412,506.696,294.412"/>
	<path style="fill-rule:evenodd;clip-rule:evenodd;fill:#FFFFFF;" d="M578.898,294.412h12.803c7.825,0,14.227,6.384,14.227,14.19
		v12.773c0,7.807-6.402,14.192-14.227,14.192h-12.803c-7.825,0-14.223-6.385-14.223-14.192v-12.773
		C564.675,300.796,571.073,294.412,578.898,294.412"/>
	<path style="fill-rule:evenodd;clip-rule:evenodd;fill:#FFFFFF;" d="M667.043,294.412h12.805c7.825,0,14.225,6.384,14.225,14.19
		v12.773c0,7.807-6.401,14.192-14.225,14.192h-12.805c-7.823,0-14.223-6.385-14.223-14.192v-12.773
		C652.82,300.796,659.22,294.412,667.043,294.412"/>
	<path style="fill-rule:evenodd;clip-rule:evenodd;fill:#FFFFFF;" d="M755.192,294.412h12.803c7.825,0,14.225,6.384,14.225,14.19
		v12.773c0,7.807-6.401,14.192-14.225,14.192h-12.803c-7.825,0-14.225-6.385-14.225-14.192v-12.773
		C740.967,300.796,747.367,294.412,755.192,294.412"/>
	<path style="fill-rule:evenodd;clip-rule:evenodd;fill:#FFFFFF;" d="M843.337,294.412h12.805c7.825,0,14.225,6.384,14.225,14.19
		v12.773c0,7.807-6.401,14.192-14.225,14.192h-12.805c-7.825,0-14.225-6.385-14.225-14.192v-12.773
		C829.112,300.796,835.512,294.412,843.337,294.412"/>
	<path style="fill-rule:evenodd;clip-rule:evenodd;fill:#FFFFFF;" d="M915.54,294.412h12.803c7.827,0,14.227,6.384,14.227,14.19
		v12.773c0,7.807-6.401,14.192-14.227,14.192H915.54c-7.825,0-14.225-6.385-14.225-14.192v-12.773
		C901.314,300.796,907.715,294.412,915.54,294.412"/>
	<path style="fill-rule:evenodd;clip-rule:evenodd;fill:#FFFFFF;" d="M1003.687,294.412h12.803c7.825,0,14.225,6.384,14.225,14.19
		v12.773c0,7.807-6.4,14.192-14.225,14.192h-12.803c-7.825,0-14.225-6.385-14.225-14.192v-12.773
		C989.461,300.796,995.862,294.412,1003.687,294.412"/>
	<path style="fill-rule:evenodd;clip-rule:evenodd;fill:#FFFFFF;" d="M418.551,374.86h12.803c7.825,0,14.225,6.385,14.225,14.191
		v12.773c0,7.807-6.401,14.191-14.225,14.191h-12.803c-7.825,0-14.225-6.384-14.225-14.191v-12.773
		C404.325,381.245,410.726,374.86,418.551,374.86"/>
	<path style="fill-rule:evenodd;clip-rule:evenodd;fill:#FFFFFF;" d="M506.696,374.86h12.805c7.825,0,14.225,6.385,14.225,14.191
		v12.773c0,7.807-6.401,14.191-14.225,14.191h-12.805c-7.825,0-14.225-6.384-14.225-14.191v-12.773
		C492.47,381.245,498.871,374.86,506.696,374.86"/>
	<path style="fill-rule:evenodd;clip-rule:evenodd;fill:#FFFFFF;" d="M578.898,374.86h12.803c7.825,0,14.227,6.385,14.227,14.191
		v12.773c0,7.807-6.402,14.191-14.227,14.191h-12.803c-7.825,0-14.223-6.384-14.223-14.191v-12.773
		C564.675,381.245,571.073,374.86,578.898,374.86"/>
	<path style="fill-rule:evenodd;clip-rule:evenodd;fill:#FFFFFF;" d="M667.043,374.86h12.805c7.825,0,14.225,6.385,14.225,14.191
		v12.773c0,7.807-6.401,14.191-14.225,14.191h-12.805c-7.823,0-14.223-6.384-14.223-14.191v-12.773
		C652.82,381.245,659.22,374.86,667.043,374.86"/>
	<path style="fill-rule:evenodd;clip-rule:evenodd;fill:#FFFFFF;" d="M755.192,374.86h12.803c7.825,0,14.225,6.385,14.225,14.191
		v12.773c0,7.807-6.401,14.191-14.225,14.191h-12.803c-7.825,0-14.225-6.384-14.225-14.191v-12.773
		C740.967,381.245,747.367,374.86,755.192,374.86"/>
	<path style="fill-rule:evenodd;clip-rule:evenodd;fill:#FFFFFF;" d="M843.337,374.86h12.805c7.825,0,14.225,6.385,14.225,14.191
		v12.773c0,7.807-6.401,14.191-14.225,14.191h-12.805c-7.825,0-14.225-6.384-14.225-14.191v-12.773
		C829.112,381.245,835.512,374.86,843.337,374.86"/>
	<path style="fill-rule:evenodd;clip-rule:evenodd;fill:#FFFFFF;" d="M915.54,374.86h12.803c7.827,0,14.227,6.385,14.227,14.191
		v12.773c0,7.807-6.401,14.191-14.227,14.191H915.54c-7.825,0-14.225-6.384-14.225-14.191v-12.773
		C901.314,381.245,907.715,374.86,915.54,374.86"/>
	<path style="fill-rule:evenodd;clip-rule:evenodd;fill:#FFFFFF;" d="M1003.687,374.86h12.803c7.825,0,14.225,6.385,14.225,14.191
		v12.773c0,7.807-6.4,14.191-14.225,14.191h-12.803c-7.825,0-14.225-6.384-14.225-14.191v-12.773
		C989.461,381.245,995.862,374.86,1003.687,374.86"/>
	<path style="fill-rule:evenodd;clip-rule:evenodd;fill:#FFFFFF;" d="M418.551,450.632h12.803c7.825,0,14.225,6.384,14.225,14.19
		v12.773c0,7.807-6.401,14.192-14.225,14.192h-12.803c-7.825,0-14.225-6.385-14.225-14.192v-12.773
		C404.325,457.016,410.726,450.632,418.551,450.632"/>
	<path style="fill-rule:evenodd;clip-rule:evenodd;fill:#FFFFFF;" d="M506.696,450.632h12.805c7.825,0,14.225,6.384,14.225,14.19
		v12.773c0,7.807-6.401,14.192-14.225,14.192h-12.805c-7.825,0-14.225-6.385-14.225-14.192v-12.773
		C492.47,457.016,498.871,450.632,506.696,450.632"/>
	<path style="fill-rule:evenodd;clip-rule:evenodd;fill:#FFFFFF;" d="M578.898,450.632h12.803c7.825,0,14.227,6.384,14.227,14.19
		v12.773c0,7.807-6.402,14.192-14.227,14.192h-12.803c-7.825,0-14.223-6.385-14.223-14.192v-12.773
		C564.675,457.016,571.073,450.632,578.898,450.632"/>
	<path style="fill-rule:evenodd;clip-rule:evenodd;fill:#FFFFFF;" d="M667.043,450.632h12.805c7.825,0,14.225,6.384,14.225,14.19
		v12.773c0,7.807-6.401,14.192-14.225,14.192h-12.805c-7.823,0-14.223-6.385-14.223-14.192v-12.773
		C652.82,457.016,659.22,450.632,667.043,450.632"/>
	<path style="fill-rule:evenodd;clip-rule:evenodd;fill:#FFFFFF;" d="M755.192,450.632h12.803c7.825,0,14.225,6.384,14.225,14.19
		v12.773c0,7.807-6.401,14.192-14.225,14.192h-12.803c-7.825,0-14.225-6.385-14.225-14.192v-12.773
		C740.967,457.016,747.367,450.632,755.192,450.632"/>
	<path style="fill-rule:evenodd;clip-rule:evenodd;fill:#FFFFFF;" d="M843.337,450.632h12.805c7.825,0,14.225,6.384,14.225,14.19
		v12.773c0,7.807-6.401,14.192-14.225,14.192h-12.805c-7.825,0-14.225-6.385-14.225-14.192v-12.773
		C829.112,457.016,835.512,450.632,843.337,450.632"/>
	<path style="fill-rule:evenodd;clip-rule:evenodd;fill:#FFFFFF;" d="M915.54,450.632h12.803c7.827,0,14.227,6.384,14.227,14.19
		v12.773c0,7.807-6.401,14.192-14.227,14.192H915.54c-7.825,0-14.225-6.385-14.225-14.192v-12.773
		C901.314,457.016,907.715,450.632,915.54,450.632"/>
	<path style="fill-rule:evenodd;clip-rule:evenodd;fill:#FFFFFF;" d="M1003.687,450.632h12.803c7.825,0,14.225,6.384,14.225,14.19
		v12.773c0,7.807-6.4,14.192-14.225,14.192h-12.803c-7.825,0-14.225-6.385-14.225-14.192v-12.773
		C989.461,457.016,995.862,450.632,1003.687,450.632"/>
	<path style="opacity:0.19;fill-rule:evenodd;clip-rule:evenodd;fill:#39D4FF;" d="M3778.156,1161.583
		c-366.252,427.748-236.253,678.822,390,753.221C5349.992,2252.223,2449.719,2290.245,3032.387,2916h479.411
		c-652.818-642.376,2311.56-677.986,1118.929-1018.487c-626.251-74.399-756.252-325.474-390-753.221
		c423.558-520.809,478.725-899.882,165.505-1137.223H3919.83C4259.375,243.1,4212.152,627.938,3778.156,1161.583"/>
</g>
</svg>
